<svg width="300" height="250" xmlns="http://www.w3.org/2000/svg">
  <rect width="300" height="250" fill="#f8fafc"/>
  <rect x="25" y="25" width="250" height="200" fill="white" rx="12" stroke="#e5e7eb"/>
  
  <!-- Timer Circle -->
  <circle cx="150" cy="125" r="75" fill="none" stroke="#e5e7eb" stroke-width="2"/>
  <circle cx="150" cy="125" r="30" fill="none" stroke="#e5e7eb" stroke-width="1"/>
  
  <!-- Active segments in green -->
  <path d="M 150 50 A 75 75 0 0 1 225 125 L 180 125 A 30 30 0 0 0 150 95 Z" fill="#10b981"/>
  <path d="M 225 125 A 75 75 0 0 1 150 200 L 150 155 A 30 30 0 0 0 180 125 Z" fill="#10b981"/>
  <path d="M 75 125 A 75 75 0 0 1 150 50 L 150 95 A 30 30 0 0 0 120 125 Z" fill="#10b981"/>
  
  <!-- Title -->
  <text x="150" y="15" text-anchor="middle" font-family="Arial, sans-serif" font-size="14" font-weight="bold" fill="#374151">Active Timer Segments</text>
  
  <!-- Labels -->
  <text x="150" y="240" text-anchor="middle" font-family="Arial, sans-serif" font-size="11" fill="#10b981">🟢 Morning Schedule Active</text>
</svg>
